<?xml version="1.0" encoding="utf-8"?>
<!-- Generator: Adobe Illustrator 24.0.1, SVG Export Plug-In . SVG Version: 6.00 Build 0)  -->
<svg version="1.1" id="Layer_1" xmlns="http://www.w3.org/2000/svg" xmlns:xlink="http://www.w3.org/1999/xlink" x="0px" y="0px"
	 viewBox="0 0 123.9 50.9" style="enable-background:new 0 0 123.9 50.9;" xml:space="preserve">
<style type="text/css">
	.st0{fill:#FFFFFF;}
</style>
<path class="st0" d="M121.1,4.1c-1.5-2.3-4.6-2.9-6.9-1.4L61.9,37.9L9.7,2.8C7.4,1.2,4.3,1.9,2.8,4.1c-1.5,2.3-0.9,5.4,1.4,6.9
	l54.9,37c0,0,0,0,0,0l0,0c0,0,0,0,0.1,0c0.2,0.1,0.4,0.2,0.5,0.3c0.1,0,0.1,0.1,0.2,0.1c0.1,0.1,0.3,0.1,0.4,0.2
	c0.1,0,0.2,0.1,0.3,0.1c0.1,0,0.3,0.1,0.4,0.1c0.1,0,0.2,0,0.2,0c0.2,0,0.4,0,0.6,0c0,0,0,0,0,0c0,0,0,0,0,0s0,0,0,0c0,0,0,0,0,0
	c0.2,0,0.4,0,0.6,0c0.1,0,0.2,0,0.2,0c0.1,0,0.3-0.1,0.4-0.1c0.1,0,0.2-0.1,0.3-0.1c0.1,0,0.3-0.1,0.4-0.2c0.1,0,0.1-0.1,0.2-0.1
	c0.2-0.1,0.4-0.2,0.5-0.3c0,0,0,0,0,0l0,0c0,0,0,0,0,0l54.9-37C122,9.5,122.6,6.4,121.1,4.1z"/>
</svg>
