<?xml version="1.0" encoding="utf-8"?>
<!-- Generator: Adobe Illustrator 24.0.1, SVG Export Plug-In . SVG Version: 6.00 Build 0)  -->
<svg version="1.1" id="Layer_1" xmlns="http://www.w3.org/2000/svg" xmlns:xlink="http://www.w3.org/1999/xlink" x="0px" y="0px"
	 viewBox="0 0 263 162.5" style="enable-background:new 0 0 263 162.5;" xml:space="preserve">
<style type="text/css">
	.st0{fill:#FFFFFF;}
</style>
<path class="st0" d="M243.6,0H19.4C8.7,0,0,8.7,0,19.4v123.7c0,10.7,8.7,19.4,19.4,19.4h224.2c10.7,0,19.4-8.7,19.4-19.4V19.4
	C263,8.7,254.3,0,243.6,0z M131.52,75.64L44.73,20h174.33L131.52,75.64z M20,142.5V27.9l106.1,68.02c0.08,0.05,0.16,0.08,0.25,0.13
	c0.26,0.16,0.52,0.3,0.79,0.43c0.16,0.08,0.32,0.15,0.48,0.22c0.25,0.1,0.5,0.19,0.75,0.28c0.18,0.06,0.36,0.12,0.54,0.17
	c0.25,0.07,0.51,0.11,0.76,0.16c0.18,0.03,0.35,0.08,0.53,0.1c0.38,0.05,0.76,0.07,1.14,0.08c0.05,0,0.1,0.01,0.14,0.01
	c0,0,0.01,0,0.01,0s0.01,0,0.01,0c0.05,0,0.1-0.01,0.15-0.01c0.38-0.01,0.76-0.03,1.13-0.08c0.18-0.02,0.35-0.07,0.53-0.1
	c0.25-0.05,0.51-0.09,0.76-0.16c0.18-0.05,0.36-0.11,0.54-0.17c0.25-0.08,0.5-0.17,0.74-0.27c0.16-0.07,0.32-0.14,0.48-0.22
	c0.27-0.13,0.53-0.27,0.79-0.42c0.08-0.05,0.16-0.08,0.24-0.13L243,28.48V142.5H20z"/>
</svg>
