<?xml version="1.0" encoding="utf-8"?>
<!-- Generator: Adobe Illustrator 24.0.1, SVG Export Plug-In . SVG Version: 6.00 Build 0)  -->
<svg version="1.1" id="Layer_1" xmlns="http://www.w3.org/2000/svg" xmlns:xlink="http://www.w3.org/1999/xlink" x="0px" y="0px"
	 viewBox="0 0 44.05 36.86" style="enable-background:new 0 0 44.05 36.86;" xml:space="preserve">
<style type="text/css">
	.st0{fill:#FFFFFF;}
</style>
<g>
	<path class="st0" d="M42.87,4.22c0.33-1.11-0.05-2.3-0.95-3.02c-0.51-0.41-1.14-0.62-1.77-0.62c-0.5,0-1,0.13-1.44,0.4
		c-0.89,0.52-1.82,0.94-2.79,1.23C34.06,0.79,31.76,0,29.4,0c-5.42,0-9.9,4.04-10.61,9.26c-4.32-0.92-8.25-3.3-11.09-6.78
		c-0.54-0.67-1.35-1.05-2.2-1.05c-0.07,0-0.15,0.01-0.22,0.01c-0.93,0.07-1.76,0.6-2.23,1.4C2.11,4.48,1.61,6.34,1.61,8.23
		c0,1.28,0.23,2.52,0.65,3.69c-0.45,0.51-0.71,1.18-0.71,1.88c0,2.81,1.06,5.39,2.83,7.33c-0.11,0.48-0.09,1,0.07,1.49
		c0.61,1.91,1.73,3.56,3.17,4.82c-0.94,0.21-1.91,0.32-2.9,0.32c-0.51,0-1.03-0.03-1.55-0.09c-0.11-0.01-0.22-0.02-0.33-0.02
		c-1.19,0-2.26,0.74-2.66,1.88c-0.45,1.24,0.03,2.63,1.13,3.34c4.07,2.61,8.77,3.99,13.6,3.99c15.65,0,25.06-12.6,25.23-24.9
		c1.27-1.09,2.39-2.33,3.34-3.73c0.36-0.47,0.57-1.06,0.57-1.71C44.05,5.57,43.58,4.73,42.87,4.22z M37.28,10.6
		c0.02,0.34,0.03,0.68,0.03,1.02c0,10.4-7.92,22.4-22.4,22.4c-4.44,0-8.58-1.3-12.07-3.54c0.61,0.07,1.24,0.11,1.88,0.11
		c3.69,0,7.08-1.26,9.78-3.37c-3.45-0.06-6.35-2.34-7.36-5.47c0.48,0.09,0.98,0.14,1.48,0.14c0.72,0,1.42-0.1,2.07-0.28
		c-3.6-0.73-6.32-3.91-6.32-7.72c0-0.03,0-0.07,0-0.1c1.06,0.59,2.28,0.94,3.57,0.98c-2.11-1.41-3.5-3.82-3.5-6.55
		c0-1.44,0.39-2.79,1.07-3.96c3.88,4.76,9.68,7.9,16.23,8.22c-0.14-0.57-0.2-1.18-0.2-1.8c0-4.34,3.52-7.87,7.87-7.87
		c2.27,0,4.31,0.96,5.75,2.48c1.79-0.35,3.48-1.01,5-1.91c-0.59,1.84-1.84,3.38-3.46,4.35c1.59-0.19,3.11-0.61,4.52-1.24
		C40.15,8.1,38.82,9.49,37.28,10.6z"/>
</g>
</svg>
